<?xml version="1.0" standalone="no"?>
<!DOCTYPE svg PUBLIC "-//W3C//DTD SVG 20010904//EN"
 "http://www.w3.org/TR/2001/REC-SVG-20010904/DTD/svg10.dtd">
<svg version="1.0" xmlns="http://www.w3.org/2000/svg"
 width="260.000000pt" height="260.000000pt" viewBox="0 0 260.000000 260.000000"
 preserveAspectRatio="xMidYMid meet">
<metadata>
Created by potrace 1.11, written by Peter Selinger 2001-2013
</metadata>
<g transform="translate(0.000000,260.000000) scale(0.100000,-0.100000)"
fill="#000000" stroke="none">
<path d="M1740 2094 c-14 -2 -52 -9 -85 -15 -139 -25 -301 -132 -357 -236 -80
-150 -54 -355 60 -469 82 -82 199 -127 437 -168 234 -41 296 -59 353 -103 109
-83 92 -279 -32 -358 -92 -58 -144 -70 -301 -69 -121 1 -152 5 -226 27 -115
35 -187 67 -269 122 -37 25 -70 45 -74 45 -3 0 -6 -57 -6 -128 l0 -128 88 -32
c125 -46 228 -70 355 -83 339 -34 603 73 709 288 32 65 33 72 33 183 0 139
-20 194 -95 264 -89 83 -184 118 -470 171 -265 49 -330 76 -370 155 -49 96
-35 189 40 261 76 75 136 93 305 93 116 1 154 -3 225 -22 93 -26 192 -69 257
-113 23 -16 44 -29 48 -29 3 0 4 55 3 123 l-3 122 -79 28 c-118 41 -262 67
-399 72 -67 2 -133 2 -147 -1z"/>
<path d="M370 1990 l0 -80 165 0 166 0 -3 -537 -3 -538 -24 -48 c-39 -79 -108
-110 -247 -109 -68 0 -145 13 -226 38 -16 5 -18 -4 -18 -90 0 -108 -9 -99 113
-115 353 -48 572 75 607 340 5 41 10 332 10 647 l0 572 -270 0 -270 0 0 -80z"/>
</g>
</svg>
